<svg xmlns="http://www.w3.org/2000/svg" width="430" height="430" style="width:100%;height:100%;transform:translate3d(0,0,0);content-visibility:visible" viewBox="0 0 430 430"><defs><filter id="a" width="100%" height="100%" x="0%" y="0%" filterUnits="objectBoundingBox"><feComponentTransfer in="SourceGraphic"><feFuncA tableValues="1.0 0.0" type="table"/></feComponentTransfer></filter><filter id="c" width="100%" height="100%" x="0%" y="0%" filterUnits="objectBoundingBox"><feComponentTransfer in="SourceGraphic"><feFuncA tableValues="1.0 0.0" type="table"/></feComponentTransfer></filter><filter id="e" width="100%" height="100%" x="0%" y="0%" filterUnits="objectBoundingBox"><feComponentTransfer in="SourceGraphic"><feFuncA tableValues="1.0 0.0" type="table"/></feComponentTransfer></filter><filter id="g" width="100%" height="100%" x="0%" y="0%" filterUnits="objectBoundingBox"><feComponentTransfer in="SourceGraphic"><feFuncA tableValues="1.0 0.0" type="table"/></feComponentTransfer></filter><path id="b" style="display:none"/><path id="d" class="quaternary" style="display:none"/><path id="f" fill="#F9C9C0" d="M61.966-107.404v93.589c0 33.806-27.413 61.219-61.219 61.219H-.747c-33.806 0-61.219-27.413-61.219-61.219v-90.028" style="display:block" transform="translate(234.439 185.582)"/><path id="h" fill="#4BB3FD" d="m35.264-97.12 8.968.498c43.48 0 92.355 52.67 92.355 96.15V31.04c0 8.459-6.861 15.321-15.32 15.321h-19.43C63.35 49.35 49.07 71.432 16.898 71.432h-33.796c-32.172 0-31.679-13.826-70.166-16.815h-19.43c-8.459 0-15.321-6.861-15.321-15.32V7.785c0-41.884 32.7-76.121 73.966-78.578 1.572-.094-1.246-.141.35-.141 0 0 52.897-7.697 73.598-21.873" class="quaternary" style="display:block" transform="matrix(.88 0 0 1 225 324.631)"/><mask id="o" mask-type="alpha"><g filter="url(#a)"><path fill="#fff" d="M0 0h430v430H0z" opacity="0"/><use xmlns:ns1="http://www.w3.org/1999/xlink" ns1:href="#b"/></g></mask><mask id="n" mask-type="alpha"><g filter="url(#c)"><path fill="#fff" d="M0 0h430v430H0z" opacity="0"/><use xmlns:ns2="http://www.w3.org/1999/xlink" ns2:href="#d"/></g></mask><mask id="l" mask-type="alpha"><g filter="url(#e)"><path fill="#fff" d="M0 0h430v430H0z" opacity="0"/><use xmlns:ns3="http://www.w3.org/1999/xlink" ns3:href="#f"/></g></mask><mask id="k" mask-type="alpha"><g filter="url(#g)"><path fill="#fff" d="M0 0h430v430H0z" opacity="0"/><use xmlns:ns4="http://www.w3.org/1999/xlink" ns4:href="#h"/></g></mask><clipPath id="i"><path d="M0 0h430v430H0z"/></clipPath><clipPath id="m"><path d="M0 0h430v430H0z"/></clipPath><clipPath id="j"><path d="M0 0h430v430H0z"/></clipPath></defs><g clip-path="url(#i)"><g clip-path="url(#j)" style="display:block"><g style="display:block"><path fill="#4BB3FD" d="m249.128 243.199 8.968.498c43.48 0 78.719 35.239 78.719 78.719v31.512c0 8.459-6.862 15.32-15.321 15.32h-19.43c-38.487 2.989-37.994 16.815-70.166 16.815h-33.796c-32.172 0-31.679-13.826-70.166-16.815h-19.43c-8.459 0-15.321-6.861-15.321-15.32v-31.512c0-43.48 35.239-78.719 78.719-78.719l8.968-.498" class="tertiary"/><path fill="#F9C9C0" d="M180.871 216.576v26.623c0 17.469 14.168 31.636 31.637 31.636H215c17.469 0 31.637-14.167 31.637-31.636v-25.782" class="primary"/></g><g mask="url(#k)" opacity=".5" style="mix-blend-mode:multiply;display:block"><path fill="#4BB3FD" d="m249.128 243.199 8.968.498c43.48 0 78.719 35.239 78.719 78.719v31.512c0 8.459-6.862 15.32-15.321 15.32h-19.43c-38.487 2.989-37.994 16.815-70.166 16.815h-33.796c-32.172 0-31.679-13.826-70.166-16.815h-19.43c-8.459 0-15.321-6.861-15.321-15.32v-31.512c0-43.48 35.239-78.719 78.719-78.719l8.968-.498" class="tertiary" opacity="1"/><path fill="#F9C9C0" d="M180.871 216.576v26.623c0 17.469 14.168 31.636 31.637 31.636H215c17.469 0 31.637-14.167 31.637-31.636v-25.782" class="primary" opacity="1"/></g><path fill="#F9C9C0" d="M61.966-107.404v93.589c0 33.806-27.413 61.219-61.219 61.219H-.747c-33.806 0-61.219-27.413-61.219-61.219v-90.028" class="primary" style="display:block" transform="translate(214.439 185.582)"/><g mask="url(#l)" opacity=".5" style="mix-blend-mode:multiply;display:block"><path fill="#F9C9C0" d="M276.405 78.178v93.589c0 33.806-27.413 61.219-61.219 61.219h-1.494c-33.806 0-61.219-27.413-61.219-61.219V81.739" class="primary" opacity="1"/></g><path fill="#B26836" d="M276.405 141.312s2.616-39.608-37.989-60.782c0 0-12.393 46.022-89.843 62.061 0 0-26.554-78.193 6.606-97.182 3.715-2.127 9.811-1.91 13.416.398 5.06 3.239 10.136 8.519 13.336 11.244 2.429 2.069 5.541 3.171 8.728 3.015 4.393-.215 10.477-1.475 16.483-4.696 48.052-19.099 76.825 2.881 76.239 31.387-.545 26.527 2.49 48.576-6.976 54.555" class="quinary" style="display:block"/><g fill="#EBE6EF" style="display:block"><path d="M308.888 263.1c38.058 0 68.912 30.855 68.912 68.913s-30.854 68.912-68.912 68.912-68.913-30.854-68.913-68.912S270.83 263.1 308.888 263.1" class="secondary"/><path d="M0-18.625c-17.267 5.176-15.919 21.7-10.767 27.983 4.818 5.875 11.54 9.085 22.134 5.397A18.54 18.54 0 0 1 0 18.625c-10.286 0-18.625-8.339-18.625-18.625S-10.286-18.625 0-18.625" class="secondary" opacity=".5" style="mix-blend-mode:multiply" transform="matrix(3.7 0 0 3.7 308.888 332.013)"/></g><path fill="none" stroke="#2CA58D" stroke-linecap="round" stroke-width="2" d="M34.25 14.75V33m9.125-9.125h-18.25" class="quaternary" style="display:block" transform="rotate(180 218.038 209.944)scale(3.7)"/></g><g clip-path="url(#m)" style="display:none"><g style="display:none"><path class="tertiary"/><path class="primary"/></g><g mask="url(#n)" style="mix-blend-mode:multiply;display:none"><path class="tertiary"/><path class="primary"/></g><path class="primary" style="display:none"/><g mask="url(#o)" style="mix-blend-mode:multiply;display:none"><path class="primary"/></g><path class="quinary" style="display:none"/><g style="display:none"><path class="secondary"/><path class="secondary" style="mix-blend-mode:multiply"/></g><g fill="none" style="display:none"><path class="quaternary"/><path class="quaternary"/></g></g></g></svg>